<svg xmlns="http://www.w3.org/2000/svg" xmlns:xlink="http://www.w3.org/1999/xlink" xmlns:svgjs="http://svgjs.com/svgjs" version="1.1" width="512" height="512" x="0" y="0" viewBox="0 0 300 300" style="enable-background:new 0 0 512 512" xml:space="preserve" class=""><g><g xmlns="http://www.w3.org/2000/svg"><circle cx="96" cy="56" r="4" fill="#a1a1a1" data-original="#000000" style="" class=""/><path d="m244 36c-6.617 0-12 5.383-12 12s5.383 12 12 12 12-5.383 12-12-5.383-12-12-12zm0 16c-2.205 0-4-1.795-4-4s1.795-4 4-4 4 1.795 4 4-1.795 4-4 4z" fill="#a1a1a1" data-original="#000000" style="" class=""/><path d="m51.516 76.484c.781.781 1.805 1.172 2.828 1.172s2.047-.391 2.828-1.172l2.828-2.828 2.828 2.828c.781.781 1.805 1.172 2.828 1.172s2.047-.391 2.828-1.172c1.562-1.562 1.562-4.094 0-5.656l-2.828-2.828 2.828-2.828c1.562-1.562 1.562-4.094 0-5.656s-4.094-1.562-5.656 0l-2.828 2.828-2.828-2.828c-1.562-1.562-4.094-1.562-5.656 0s-1.562 4.094 0 5.656l2.828 2.828-2.828 2.828c-1.563 1.563-1.563 4.094 0 5.656z" fill="#a1a1a1" data-original="#000000" style="" class=""/><path d="m86 228h138c1.891 0 3.525-1.324 3.914-3.176l16-76c.248-1.18-.049-2.408-.809-3.344-.76-.938-1.9-1.48-3.105-1.48h-160.609l-7.52-29.004c-.457-1.764-2.049-2.996-3.871-2.996h-20c-2.209 0-4 1.791-4 4s1.791 4 4 4h16.904l25.927 100h-4.831c-7.719 0-14 6.281-14 14s6.281 14 14 14h14c0 8.822 7.178 16 16 16s16-7.178 16-16h52c0 8.822 7.178 16 16 16s16-7.178 16-16h8c2.209 0 4-1.791 4-4s-1.791-4-4-4h-10.226c-2.776-4.759-7.879-8-13.774-8s-10.999 3.241-13.774 8h-56.452c-2.776-4.759-7.879-8-13.774-8s-10.999 3.241-13.774 8h-16.226c-3.309 0-6-2.691-6-6s2.691-6 6-6zm2.725-48h26.621l1.684 16h-24.157zm34.666 0h28.609v16h-26.925zm67.534 16h-30.925v-16h32.609zm9.729-16h28.521l-3.369 16h-26.836zm-10.571 24-1.684 16h-28.399v-16zm-30.083-32v-20h35.556l-2.105 20zm-8 0h-29.451l-2.105-20h31.556zm0 32v16h-24.398l-1.684-16zm68.754 16h-24.31l1.684-16h25.995zm10.106-48h-29.364l2.105-20h31.469zm-118.462-20 2.105 20h-27.853l-5.186-20zm-17.451 52h22.925l1.684 16h-20.46zm105.053 36c4.412 0 8 3.588 8 8s-3.588 8-8 8-8-3.588-8-8 3.588-8 8-8zm-84 0c4.412 0 8 3.588 8 8s-3.588 8-8 8-8-3.588-8-8 3.588-8 8-8z" fill="#a1a1a1" data-original="#000000" style="" class=""/><path d="m120.846 128h78.076c3.334 0 6.414-1.771 8.037-4.623 1.596-2.803 1.564-6.133-.082-8.908l-39.039-65.754c-1.664-2.807-4.639-4.482-7.955-4.482s-6.291 1.676-7.955 4.482l-39.037 65.754c-1.648 2.773-1.68 6.104-.086 8.906 1.623 2.854 4.705 4.625 8.041 4.625zm-1.076-9.447 39.037-65.756c.303-.508.854-.564 1.076-.564s.773.057 1.076.566l39.039 65.754c.062.107.256.432.01.865-.1.176-.404.582-1.086.582h-78.076c-.682 0-.988-.406-1.088-.582-.246-.432-.053-.756.012-.865z" fill="#a1a1a1" data-original="#000000" style="" class=""/><path d="m159.883 102.951c2.209 0 4-1.791 4-4v-28c0-2.209-1.791-4-4-4s-4 1.791-4 4v28c0 2.209 1.791 4 4 4z" fill="#a1a1a1" data-original="#000000" style="" class=""/><circle cx="159.883" cy="110.952" r="4" fill="#a1a1a1" data-original="#000000" style="" class=""/></g></g></svg>