<svg id="Calque_1" data-name="Calque 1" xmlns="http://www.w3.org/2000/svg" viewBox="0 0 100 100"><defs><style>.cls-1{fill:#0d3959;}.cls-2{fill:#d66739;}</style></defs><rect class="cls-1" x="26.84" y="22.66" width="10.19" height="60.73"/><rect class="cls-2" x="26.84" y="9.72" width="10.19" height="12.95"/><path class="cls-1" d="M61,22.68H74.67L47.13,52,76.42,83H63.21L38.66,58s-.45-.39-.69-.58c-1.35-1.11-5.28-5.24,1.2-12.12Z"/><path class="cls-2" d="M77.17,14.22H42.84v3.36H77.17a7.5,7.5,0,0,1,7.5,7.5V79.42a7.5,7.5,0,0,1-7.5,7.5H22.83a7.5,7.5,0,0,1-7.5-7.5V25.08a7.5,7.5,0,0,1,5.22-7.14V14.46A10.88,10.88,0,0,0,12,25.08V79.42A10.87,10.87,0,0,0,22.83,90.28H77.17A10.87,10.87,0,0,0,88,79.42V25.08A10.87,10.87,0,0,0,77.17,14.22Z"/></svg>